<svg version="1.1" id="Layer_1" xmlns="http://www.w3.org/2000/svg" xmlns:xlink="http://www.w3.org/1999/xlink" x="0px" y="0px"
	 width="100%" viewBox="0 0 771 218" enable-background="new 0 0 771 218" xml:space="preserve">
<path fill="#000000" opacity="1.000000" stroke="none" 
	d="
M491.000000,219.000000 
	C327.333344,219.000000 164.166702,219.000000 1.000044,219.000000 
	C1.000029,146.333359 1.000029,73.666725 1.000015,1.000063 
	C257.999939,1.000042 514.999878,1.000042 771.999878,1.000021 
	C771.999878,73.666603 771.999878,146.333206 771.999939,218.999908 
	C678.500000,219.000000 585.000000,219.000000 491.000000,219.000000 
M615.729126,124.666138 
	C615.846924,124.801559 615.964661,124.936981 616.005798,125.904915 
	C614.758789,133.846146 613.511780,141.787384 612.254333,149.795319 
	C619.285400,150.614838 623.242493,146.801254 627.233215,143.733185 
	C628.427246,142.815247 627.544922,139.467606 628.049438,137.336258 
	C630.632874,126.423286 633.236694,115.511833 636.096558,104.669266 
	C637.190063,100.523552 638.983032,96.562347 640.951050,91.162163 
	C630.498657,92.065536 621.389832,91.674202 612.955505,93.871689 
	C601.701660,96.803795 592.646729,103.830467 585.141724,113.112793 
	C578.340149,121.525101 574.264587,130.880661 572.064087,141.214981 
	C570.594849,148.115280 574.541687,152.180267 581.447510,150.904465 
	C583.884399,150.454254 586.550171,149.487686 588.401245,147.918854 
	C597.535034,140.177734 606.430603,132.155487 615.729126,124.666138 
M498.742310,126.654633 
	C498.855621,126.793945 498.968903,126.933250 499.005615,127.872910 
	C496.468933,135.966751 494.101593,144.118576 491.355072,152.140564 
	C487.432953,163.596146 483.829834,175.171219 474.065338,183.570618 
	C464.762421,191.572952 447.542175,194.018585 439.504578,180.055176 
	C438.254395,177.883316 436.732452,175.867920 435.056458,173.361923 
	C433.632507,175.218597 432.416321,176.498154 431.552856,177.982834 
	C427.661346,184.674179 429.448334,190.161667 436.350586,193.786926 
	C442.881042,197.216888 450.168976,197.068405 456.631256,195.724182 
	C478.841248,191.104324 494.493103,177.393768 502.776184,156.570602 
	C509.511566,139.638260 514.310608,121.936920 520.010132,104.590363 
	C521.344666,100.528755 522.848450,96.522766 524.358643,92.252937 
	C516.972290,92.252937 510.035828,91.384727 503.401733,92.432030 
	C489.192352,94.675217 478.045227,102.432220 469.514404,113.973839 
	C462.143799,123.945824 457.977814,134.953079 459.143829,147.501495 
	C459.260986,148.762421 461.224213,150.601120 462.584473,150.865387 
	C467.996948,151.916916 472.540558,148.954391 476.332489,145.910904 
	C484.022003,139.739090 491.109772,132.817520 498.742310,126.654633 
M186.875656,198.983826 
	C195.212372,196.000076 201.269958,190.740662 204.237411,181.231506 
	C204.491882,179.653290 204.967102,178.075302 204.968689,176.496826 
	C205.014969,130.686707 205.044449,84.876450 204.934769,39.066563 
	C204.928986,36.654125 203.678986,34.244671 202.987350,31.120157 
	C198.153641,20.925035 190.138000,15.965384 178.813248,15.981277 
	C134.158585,16.043945 89.500923,16.284725 44.850941,15.823824 
	C32.774048,15.699162 20.085121,25.253613 20.050621,40.303867 
	C19.946346,85.791489 19.882988,131.280029 20.084112,176.766983 
	C20.139275,189.242737 31.620003,199.894135 43.892971,199.974274 
	C89.806046,199.978912 135.719131,199.992691 181.632141,199.947571 
	C183.133392,199.946106 184.634048,199.344864 186.875656,198.983826 
M688.999817,111.520630 
	C685.733765,123.960075 682.467712,136.399521 678.960022,149.759415 
	C682.769287,148.183792 685.889038,147.268829 688.596619,145.660187 
	C690.962891,144.254395 694.081177,142.437973 694.772583,140.165588 
	C698.823730,126.851067 707.357483,117.296707 718.691162,109.910164 
	C720.988708,108.412766 723.699219,107.549042 727.559570,105.778564 
	C723.163818,121.357468 719.226807,135.310577 715.125732,149.845047 
	C725.050354,150.554916 730.259949,144.511703 734.676270,140.757324 
	C734.676270,135.425018 733.870728,131.372131 734.829285,127.791473 
	C737.559265,117.593246 740.774109,107.504974 744.283936,97.544617 
	C745.784485,93.286186 743.666687,92.230423 740.781799,93.155495 
	C735.219666,94.939072 729.541687,96.990929 724.651550,100.096481 
	C716.838989,105.057961 709.630188,110.970207 702.460571,116.263145 
	C703.546448,109.095764 704.664124,101.718613 705.909180,93.500526 
	C688.172546,94.679329 678.867249,107.211891 666.990051,115.842201 
	C668.207153,108.100609 669.358337,100.777786 670.546509,93.220215 
	C669.077698,93.102547 668.425476,92.917389 667.834351,93.036156 
	C667.073303,93.189079 666.354675,93.570580 665.628845,93.879570 
	C658.861633,96.760368 654.347290,99.845161 653.424438,109.078384 
	C652.086792,122.462769 647.044861,135.476929 643.600586,148.581787 
	C647.639526,149.017593 658.215637,143.248795 660.018982,139.430862 
	C661.930664,135.383530 663.812683,131.307739 665.997742,127.406845 
	C671.157898,118.194382 678.018066,110.694672 688.580627,105.786285 
	C688.760986,107.887810 688.880493,109.279839 688.999817,111.520630 
M378.031616,67.747116 
	C381.670959,59.625751 385.310303,51.504387 388.990997,43.290737 
	C379.365540,42.535076 374.078613,46.503670 370.054626,57.776592 
	C359.524231,87.276878 349.116394,116.820915 338.605621,146.500214 
	C340.192017,147.594894 341.175323,148.449722 342.301910,149.023056 
	C351.770660,153.841736 361.671143,153.181564 371.262177,150.134308 
	C387.578888,144.950150 397.607452,133.029343 402.845459,117.214272 
	C404.845459,111.175697 405.229095,104.551285 405.921783,98.147614 
	C406.397491,93.749634 404.211487,91.165604 399.466370,92.047913 
	C396.656555,92.570381 393.589386,93.005798 391.235046,94.452248 
	C382.001343,100.125168 373.005005,106.184402 363.725189,112.227348 
	C368.466736,97.721031 373.233002,83.139015 378.031616,67.747116 
M301.565277,81.950195 
	C297.847260,86.662361 294.462738,91.691139 290.347260,96.025948 
	C279.054047,107.921028 267.453796,119.524597 255.975082,131.243561 
	C255.599854,130.977692 255.224625,130.711823 254.849396,130.445953 
	C257.215546,108.145981 259.581696,85.846008 261.947174,63.552467 
	C257.339355,62.807865 247.512802,66.672905 245.547028,70.060104 
	C245.095932,70.837372 245.083237,71.912247 245.012924,72.860840 
	C243.994751,86.596458 243.411346,100.379677 241.884674,114.057838 
	C240.402679,127.335655 237.958557,140.506088 235.878723,154.104370 
	C242.185501,153.127991 248.470413,152.241730 253.343979,145.649551 
	C260.043518,136.587570 267.746552,128.195541 275.590424,120.067291 
	C289.485016,105.668976 304.014160,91.880707 317.821594,77.402153 
	C321.661377,73.375725 323.896271,67.818771 327.139038,62.520157 
	C314.526154,61.051949 307.674500,65.200394 304.141663,75.472786 
	C303.468750,77.429420 302.698425,79.352562 301.565277,81.950195 
M424.525330,104.985252 
	C421.970795,108.507942 419.369080,111.997566 416.871857,115.560410 
	C412.166656,122.273376 410.884644,130.169952 410.221954,137.974304 
	C409.906616,141.687973 410.851166,146.654175 413.232056,149.095886 
	C415.206970,151.121231 420.348450,151.280518 423.695374,150.526917 
	C435.768219,147.808624 445.587494,140.680664 454.660248,132.629761 
	C456.347839,131.132202 456.716858,128.148743 457.694397,125.851044 
	C457.276215,125.645729 456.858002,125.440414 456.439789,125.235100 
	C453.616302,127.672943 450.977356,130.379105 447.922455,132.480545 
	C444.124969,135.092804 440.203461,137.783310 435.941559,139.403976 
	C428.785156,142.125320 424.143066,138.709366 424.069733,131.110718 
	C424.041870,128.226974 424.801025,125.335648 425.023743,123.729744 
	C433.006805,119.899689 440.535278,116.812836 447.493195,112.749130 
	C451.553558,110.377724 454.986084,106.699905 458.182831,103.143974 
	C461.641266,99.296967 460.559631,92.554169 456.683105,92.126701 
	C453.470764,91.772484 450.049744,91.964096 446.896362,92.682564 
	C438.576355,94.578201 431.594971,99.182823 424.525330,104.985252 
M527.963928,141.312317 
	C526.854065,144.022522 525.744141,146.732727 524.547791,149.654190 
	C533.260437,150.325745 537.846497,147.333191 541.260193,140.438812 
	C544.876221,133.135727 548.590088,125.795387 553.139465,119.064941 
	C557.431274,112.715477 563.022766,107.173492 571.212463,106.069817 
	C578.384277,105.103333 583.123535,101.216904 584.579590,94.277725 
	C577.439819,92.807236 571.457581,95.112526 566.250793,99.969276 
	C561.324036,104.564766 556.350647,109.110245 550.944519,114.095749 
	C552.617310,107.046486 554.116516,100.728592 555.615723,94.410706 
	C555.135986,94.028381 554.656250,93.646057 554.176514,93.263733 
	C550.485962,94.973648 546.493591,96.251091 543.209412,98.543259 
	C540.964844,100.109840 538.961121,102.857559 538.138672,105.481262 
	C534.504089,117.076401 531.336487,128.817917 527.963928,141.312317 
M316.501312,118.999756 
	C313.691895,129.130692 310.882477,139.261612 307.787109,150.423599 
	C316.157867,149.094910 321.280151,145.418732 325.745148,140.647949 
	C326.184967,140.178024 325.862793,139.046616 326.010742,138.243698 
	C327.206604,131.754120 327.909729,125.115448 329.774109,118.821732 
	C332.240784,110.494888 335.622955,102.439255 338.606628,94.280807 
	C333.697815,93.927567 323.878571,98.434502 322.547119,101.987808 
	C320.529144,107.373154 318.809052,112.870132 316.501312,118.999756 
M335.970001,75.737083 
	C337.777344,80.945877 339.738007,81.360565 345.656067,78.054977 
	C349.325653,76.005287 350.809601,70.636139 349.899353,67.060654 
	C348.989288,63.485878 345.762817,63.697571 342.974182,64.048271 
	C338.737244,64.581123 336.382477,67.144333 335.995056,71.448311 
	C335.886932,72.649673 335.718750,73.845619 335.970001,75.737083 
z"/>
<path fill="#4EC7E9" opacity="1.000000" stroke="none" 
	d="
M42.956921,199.802887 
	C31.620003,199.894135 20.139275,189.242737 20.084112,176.766983 
	C19.882988,131.280029 19.946346,85.791489 20.050621,40.303867 
	C20.085121,25.253613 32.774048,15.699162 44.850941,15.823824 
	C89.500923,16.284725 134.158585,16.043945 178.813248,15.981277 
	C190.138000,15.965384 198.153641,20.925035 202.983307,31.958160 
	C202.989426,80.608170 202.990005,128.420181 203.044678,176.232132 
	C203.046875,178.153824 203.561432,180.074921 203.837265,181.996292 
	C201.269958,190.740662 195.212372,196.000076 186.028564,198.966125 
	C139.699799,198.959396 94.218086,198.960312 48.736454,199.016037 
	C46.809628,199.018387 44.883419,199.529037 42.956921,199.802887 
M148.591766,39.201496 
	C148.400284,39.502888 148.208801,39.804279 148.025345,40.016636 
	C148.025345,40.016636 148.113129,40.033573 147.300018,40.174221 
	C147.154175,48.812611 147.008347,57.450996 147.001785,66.420090 
	C147.001785,66.420090 147.016953,66.778610 147.000580,67.476494 
	C147.397629,67.986908 147.794678,68.497314 148.600433,69.097855 
	C148.866852,69.256645 148.996353,69.491074 149.113327,70.327003 
	C149.360321,70.579399 149.607315,70.831795 150.304276,71.762085 
	C157.357254,72.168709 164.451904,73.253113 171.453445,72.822723 
	C181.898514,72.180672 183.120972,68.395729 183.008636,59.275181 
	C182.963562,55.615448 182.758713,51.934502 183.061813,48.299500 
	C183.445602,43.696774 181.786926,40.316570 177.801071,37.067013 
	C177.277252,36.730850 176.756378,36.107143 176.229187,36.101768 
	C168.646606,36.024483 161.062271,35.974155 153.481232,36.096085 
	C152.645432,36.109524 151.827332,37.223560 150.590088,37.982563 
	C150.590088,37.982563 150.153503,38.031845 149.614868,38.196369 
	C149.418335,38.502720 149.221802,38.809071 149.019379,39.022312 
	C149.019379,39.022312 149.112610,39.025669 148.591766,39.201496 
M56.612404,95.060074 
	C56.612404,95.060074 56.201794,95.066452 55.782497,94.321770 
	C51.283527,94.603592 46.784561,94.885406 42.009048,95.184547 
	C42.009048,117.326248 42.008270,139.086060 42.009708,160.845871 
	C42.009995,165.200790 42.018742,169.555725 42.238491,174.500977 
	C42.790466,174.765717 43.342442,175.030457 44.027126,175.477051 
	C44.027126,175.477051 43.961739,175.692490 44.224556,176.421707 
	C44.933334,176.632401 45.642117,176.843094 46.569458,176.979065 
	C46.569458,176.979065 46.751137,177.121704 47.412086,177.712006 
	C54.875347,177.812668 62.338490,177.989807 69.801888,178.000961 
	C104.871140,178.053345 139.940552,178.089859 175.009506,177.990753 
	C176.669785,177.986053 178.326263,176.633179 179.980301,175.982101 
	C179.980301,175.982101 179.909561,175.960083 180.587448,175.979523 
	C181.049744,175.291275 181.512039,174.603027 181.994247,173.048111 
	C181.994247,147.089722 181.994247,121.131332 181.994247,95.390854 
	C177.285385,94.925156 173.310837,94.532074 169.086212,94.114265 
	C169.086212,96.354393 168.831909,98.204750 169.127182,99.962807 
	C171.153473,112.027695 170.113770,123.578903 163.935516,134.411163 
	C150.598785,157.794312 128.803223,167.361740 103.880508,164.751541 
	C96.943497,164.025009 89.786255,161.186707 83.693535,157.655029 
	C75.650978,152.993103 68.061737,147.162552 63.773186,138.352997 
	C61.126156,132.915451 58.712742,127.364174 56.652611,121.285149 
	C56.762833,112.520355 56.873058,103.755569 57.373360,94.755173 
	C57.359077,94.424065 57.344795,94.092949 57.330517,93.761841 
	C57.227489,94.182442 57.124466,94.603050 56.612404,95.060074 
M103.178093,73.050278 
	C101.497032,74.029076 99.927643,75.370850 98.116844,75.927948 
	C86.077263,79.631981 80.488487,88.980080 77.055466,100.042656 
	C74.851990,107.143143 76.191307,113.953789 79.167427,120.793442 
	C83.381012,130.477020 90.205971,136.811783 100.189819,140.002182 
	C109.189369,142.878006 117.805656,143.364105 126.857025,139.247375 
	C132.674103,136.601654 137.277405,133.261246 141.313263,128.416229 
	C147.205399,121.342789 148.063400,113.317703 148.156952,104.541016 
	C148.270859,93.854019 137.895645,79.953751 128.319611,75.780991 
	C120.252007,72.265549 112.194923,73.400978 103.178093,73.050278 
z"/>
<path fill="#FFFFFF" opacity="1.000000" stroke="none" 
	d="
M688.999878,111.096252 
	C688.880493,109.279839 688.760986,107.887810 688.580627,105.786285 
	C678.018066,110.694672 671.157898,118.194382 665.997742,127.406845 
	C663.812683,131.307739 661.930664,135.383530 660.018982,139.430862 
	C658.215637,143.248795 647.639526,149.017593 643.600586,148.581787 
	C647.044861,135.476929 652.086792,122.462769 653.424438,109.078384 
	C654.347290,99.845161 658.861633,96.760368 665.628845,93.879570 
	C666.354675,93.570580 667.073303,93.189079 667.834351,93.036156 
	C668.425476,92.917389 669.077698,93.102547 670.546509,93.220215 
	C669.358337,100.777786 668.207153,108.100609 666.990051,115.842201 
	C678.867249,107.211891 688.172546,94.679329 705.909180,93.500526 
	C704.664124,101.718613 703.546448,109.095764 702.460571,116.263145 
	C709.630188,110.970207 716.838989,105.057961 724.651550,100.096481 
	C729.541687,96.990929 735.219666,94.939072 740.781799,93.155495 
	C743.666687,92.230423 745.784485,93.286186 744.283936,97.544617 
	C740.774109,107.504974 737.559265,117.593246 734.829285,127.791473 
	C733.870728,131.372131 734.676270,135.425018 734.676270,140.757324 
	C730.259949,144.511703 725.050354,150.554916 715.125732,149.845047 
	C719.226807,135.310577 723.163818,121.357468 727.559570,105.778564 
	C723.699219,107.549042 720.988708,108.412766 718.691162,109.910164 
	C707.357483,117.296707 698.823730,126.851067 694.772583,140.165588 
	C694.081177,142.437973 690.962891,144.254395 688.596619,145.660187 
	C685.889038,147.268829 682.769287,148.183792 678.960022,149.759415 
	C682.467712,136.399521 685.733765,123.960075 688.999878,111.096252 
z"/>
<path fill="#FFFFFF" opacity="1.000000" stroke="none" 
	d="
M498.445587,126.205048 
	C491.109772,132.817520 484.022003,139.739090 476.332489,145.910904 
	C472.540558,148.954391 467.996948,151.916916 462.584473,150.865387 
	C461.224213,150.601120 459.260986,148.762421 459.143829,147.501495 
	C457.977814,134.953079 462.143799,123.945824 469.514404,113.973839 
	C478.045227,102.432220 489.192352,94.675217 503.401733,92.432030 
	C510.035828,91.384727 516.972290,92.252937 524.358643,92.252937 
	C522.848450,96.522766 521.344666,100.528755 520.010132,104.590363 
	C514.310608,121.936920 509.511566,139.638260 502.776184,156.570602 
	C494.493103,177.393768 478.841248,191.104324 456.631256,195.724182 
	C450.168976,197.068405 442.881042,197.216888 436.350586,193.786926 
	C429.448334,190.161667 427.661346,184.674179 431.552856,177.982834 
	C432.416321,176.498154 433.632507,175.218597 435.056458,173.361923 
	C436.732452,175.867920 438.254395,177.883316 439.504578,180.055176 
	C447.542175,194.018585 464.762421,191.572952 474.065338,183.570618 
	C483.829834,175.171219 487.432953,163.596146 491.355072,152.140564 
	C494.101593,144.118576 496.468933,135.966751 499.324280,127.376106 
	C499.683411,126.339630 499.723846,125.799957 499.764313,125.260284 
	C499.324738,125.575211 498.885162,125.890129 498.445587,126.205048 
M476.920166,137.601532 
	C478.066925,137.099365 479.453888,136.856674 480.321747,136.053238 
	C486.262665,130.553619 492.583191,125.351234 497.794464,119.214958 
	C501.423615,114.941742 503.630035,109.406311 506.116425,104.262856 
	C506.603821,103.254608 505.756195,100.393959 505.022797,100.189896 
	C497.940460,98.219139 491.251923,98.887726 485.906586,104.607735 
	C478.535583,112.495461 475.009613,122.242165 473.189270,132.606552 
	C472.914429,134.171234 475.127533,136.172897 476.920166,137.601532 
z"/>
<path fill="#FFFFFF" opacity="1.000000" stroke="none" 
	d="
M378.015442,68.152054 
	C373.233002,83.139015 368.466736,97.721031 363.725189,112.227348 
	C373.005005,106.184402 382.001343,100.125168 391.235046,94.452248 
	C393.589386,93.005798 396.656555,92.570381 399.466370,92.047913 
	C404.211487,91.165604 406.397491,93.749634 405.921783,98.147614 
	C405.229095,104.551285 404.845459,111.175697 402.845459,117.214272 
	C397.607452,133.029343 387.578888,144.950150 371.262177,150.134308 
	C361.671143,153.181564 351.770660,153.841736 342.301910,149.023056 
	C341.175323,148.449722 340.192017,147.594894 338.605621,146.500214 
	C349.116394,116.820915 359.524231,87.276878 370.054626,57.776592 
	C374.078613,46.503670 379.365540,42.535076 388.990997,43.290737 
	C385.310303,51.504387 381.670959,59.625751 378.015442,68.152054 
M383.529846,132.976929 
	C386.019897,124.914131 389.105530,116.973076 390.787354,108.745071 
	C391.880157,103.398903 388.528076,101.609489 383.588409,104.142128 
	C369.171387,111.533936 360.996887,123.972542 356.164337,138.896088 
	C355.694641,140.346497 356.587952,143.069962 357.790405,144.069077 
	C360.979370,146.718811 364.738770,147.901291 369.102264,146.488861 
	C375.819519,144.314560 380.212524,139.834885 383.529846,132.976929 
z"/>
<path fill="#FFFFFF" opacity="1.000000" stroke="none" 
	d="
M301.769165,81.620682 
	C302.698425,79.352562 303.468750,77.429420 304.141663,75.472786 
	C307.674500,65.200394 314.526154,61.051949 327.139038,62.520157 
	C323.896271,67.818771 321.661377,73.375725 317.821594,77.402153 
	C304.014160,91.880707 289.485016,105.668976 275.590424,120.067291 
	C267.746552,128.195541 260.043518,136.587570 253.343979,145.649551 
	C248.470413,152.241730 242.185501,153.127991 235.878723,154.104370 
	C237.958557,140.506088 240.402679,127.335655 241.884674,114.057838 
	C243.411346,100.379677 243.994751,86.596458 245.012924,72.860840 
	C245.083237,71.912247 245.095932,70.837372 245.547028,70.060104 
	C247.512802,66.672905 257.339355,62.807865 261.947174,63.552467 
	C259.581696,85.846008 257.215546,108.145981 254.849396,130.445953 
	C255.224625,130.711823 255.599854,130.977692 255.975082,131.243561 
	C267.453796,119.524597 279.054047,107.921028 290.347260,96.025948 
	C294.462738,91.691139 297.847260,86.662361 301.769165,81.620682 
z"/>
<path fill="#FFFFFF" opacity="1.000000" stroke="none" 
	d="
M615.410278,124.232452 
	C606.430603,132.155487 597.535034,140.177734 588.401245,147.918854 
	C586.550171,149.487686 583.884399,150.454254 581.447510,150.904465 
	C574.541687,152.180267 570.594849,148.115280 572.064087,141.214981 
	C574.264587,130.880661 578.340149,121.525101 585.141724,113.112793 
	C592.646729,103.830467 601.701660,96.803795 612.955505,93.871689 
	C621.389832,91.674202 630.498657,92.065536 640.951050,91.162163 
	C638.983032,96.562347 637.190063,100.523552 636.096558,104.669266 
	C633.236694,115.511833 630.632874,126.423286 628.049438,137.336258 
	C627.544922,139.467606 628.427246,142.815247 627.233215,143.733185 
	C623.242493,146.801254 619.285400,150.614838 612.254333,149.795319 
	C613.511780,141.787384 614.758789,133.846146 616.357910,125.358871 
	C616.753174,123.978691 616.796265,123.144547 616.895020,121.234337 
	C616.075806,122.888496 615.743042,123.560478 615.410278,124.232452 
M598.014099,107.474998 
	C592.023682,115.160347 588.950806,124.012398 588.072693,133.589783 
	C587.667603,138.007706 589.432312,139.176392 593.279541,137.158569 
	C607.643677,129.624939 615.642944,116.553513 622.621277,102.690216 
	C622.888184,102.159904 622.335571,100.709862 621.750977,100.336594 
	C615.878052,96.586411 602.486145,100.467163 598.014099,107.474998 
z"/>
<path fill="#FFFFFF" opacity="1.000000" stroke="none" 
	d="
M424.776825,104.720161 
	C431.594971,99.182823 438.576355,94.578201 446.896362,92.682564 
	C450.049744,91.964096 453.470764,91.772484 456.683105,92.126701 
	C460.559631,92.554169 461.641266,99.296967 458.182831,103.143974 
	C454.986084,106.699905 451.553558,110.377724 447.493195,112.749130 
	C440.535278,116.812836 433.006805,119.899689 425.023743,123.729744 
	C424.801025,125.335648 424.041870,128.226974 424.069733,131.110718 
	C424.143066,138.709366 428.785156,142.125320 435.941559,139.403976 
	C440.203461,137.783310 444.124969,135.092804 447.922455,132.480545 
	C450.977356,130.379105 453.616302,127.672943 456.439789,125.235100 
	C456.858002,125.440414 457.276215,125.645729 457.694397,125.851044 
	C456.716858,128.148743 456.347839,131.132202 454.660248,132.629761 
	C445.587494,140.680664 435.768219,147.808624 423.695374,150.526917 
	C420.348450,151.280518 415.206970,151.121231 413.232056,149.095886 
	C410.851166,146.654175 409.906616,141.687973 410.221954,137.974304 
	C410.884644,130.169952 412.166656,122.273376 416.871857,115.560410 
	C419.369080,111.997566 421.970795,108.507942 424.776825,104.720161 
M446.007324,107.486435 
	C447.625214,105.287880 448.523376,102.539352 446.113892,100.911095 
	C444.400726,99.753418 441.316437,99.414497 439.320892,100.099434 
	C431.638000,102.736458 429.551544,109.826981 426.742462,116.988678 
	C428.645630,116.575798 430.124146,116.564896 431.281616,115.949814 
	C436.064331,113.408279 440.749786,110.683769 446.007324,107.486435 
z"/>
<path fill="#FFFFFF" opacity="1.000000" stroke="none" 
	d="
M527.981873,140.909378 
	C531.336487,128.817917 534.504089,117.076401 538.138672,105.481262 
	C538.961121,102.857559 540.964844,100.109840 543.209412,98.543259 
	C546.493591,96.251091 550.485962,94.973648 554.176514,93.263733 
	C554.656250,93.646057 555.135986,94.028381 555.615723,94.410706 
	C554.116516,100.728592 552.617310,107.046486 550.944519,114.095749 
	C556.350647,109.110245 561.324036,104.564766 566.250793,99.969276 
	C571.457581,95.112526 577.439819,92.807236 584.579590,94.277725 
	C583.123535,101.216904 578.384277,105.103333 571.212463,106.069817 
	C563.022766,107.173492 557.431274,112.715477 553.139465,119.064941 
	C548.590088,125.795387 544.876221,133.135727 541.260193,140.438812 
	C537.846497,147.333191 533.260437,150.325745 524.547791,149.654190 
	C525.744141,146.732727 526.854065,144.022522 527.981873,140.909378 
z"/>
<path fill="#FFFFFF" opacity="1.000000" stroke="none" 
	d="
M316.731873,118.659721 
	C318.809052,112.870132 320.529144,107.373154 322.547119,101.987808 
	C323.878571,98.434502 333.697815,93.927567 338.606628,94.280807 
	C335.622955,102.439255 332.240784,110.494888 329.774109,118.821732 
	C327.909729,125.115448 327.206604,131.754120 326.010742,138.243698 
	C325.862793,139.046616 326.184967,140.178024 325.745148,140.647949 
	C321.280151,145.418732 316.157867,149.094910 307.787109,150.423599 
	C310.882477,139.261612 313.691895,129.130692 316.731873,118.659721 
z"/>
<path fill="#78CBE6" opacity="1.000000" stroke="none" 
	d="
M204.037338,181.613892 
	C203.561432,180.074921 203.046875,178.153824 203.044678,176.232132 
	C202.990005,128.420181 202.989426,80.608170 202.993744,32.314995 
	C203.678986,34.244671 204.928986,36.654125 204.934769,39.066563 
	C205.044449,84.876450 205.014969,130.686707 204.968689,176.496826 
	C204.967102,178.075302 204.491882,179.653290 204.037338,181.613892 
z"/>
<path fill="#FFFFFF" opacity="1.000000" stroke="none" 
	d="
M335.774048,75.390564 
	C335.718750,73.845619 335.886932,72.649673 335.995056,71.448311 
	C336.382477,67.144333 338.737244,64.581123 342.974182,64.048271 
	C345.762817,63.697571 348.989288,63.485878 349.899353,67.060654 
	C350.809601,70.636139 349.325653,76.005287 345.656067,78.054977 
	C339.738007,81.360565 337.777344,80.945877 335.774048,75.390564 
z"/>
<path fill="#93DBEA" opacity="1.000000" stroke="none" 
	d="
M43.424946,199.888580 
	C44.883419,199.529037 46.809628,199.018387 48.736454,199.016037 
	C94.218086,198.960312 139.699799,198.959396 185.658234,198.985809 
	C184.634048,199.344864 183.133392,199.946106 181.632141,199.947571 
	C135.719131,199.992691 89.806046,199.978912 43.424946,199.888580 
z"/>
<path fill="#000000" opacity="1.000000" stroke="none" 
	d="
M42.023590,173.910645 
	C42.018742,169.555725 42.009995,165.200790 42.009708,160.845871 
	C42.008270,139.086060 42.009048,117.326248 42.009048,95.184547 
	C46.784561,94.885406 51.283527,94.603592 55.905022,95.110123 
	C56.083176,104.553642 56.138813,113.208801 56.194447,121.863960 
	C58.712742,127.364174 61.126156,132.915451 63.773186,138.352997 
	C68.061737,147.162552 75.650978,152.993103 83.693535,157.655029 
	C89.786255,161.186707 96.943497,164.025009 103.880508,164.751541 
	C128.803223,167.361740 150.598785,157.794312 163.935516,134.411163 
	C170.113770,123.578903 171.153473,112.027695 169.127182,99.962807 
	C168.831909,98.204750 169.086212,96.354393 169.086212,94.114265 
	C173.310837,94.532074 177.285385,94.925156 181.994247,95.390854 
	C181.994247,121.131332 181.994247,147.089722 181.633316,173.535583 
	C180.818115,174.668732 180.363846,175.314407 179.909561,175.960083 
	C179.909561,175.960083 179.980301,175.982101 179.552200,175.972260 
	C174.871948,176.303955 170.620667,176.930038 166.367523,176.942780 
	C126.495575,177.062286 86.623314,177.076813 46.751137,177.121704 
	C46.751137,177.121704 46.569458,176.979065 46.265526,176.706451 
	C45.294971,176.186722 44.628353,175.939606 43.961739,175.692490 
	C43.961739,175.692490 44.027126,175.477051 44.012428,175.013519 
	C43.339684,174.336868 42.681637,174.123764 42.023590,173.910645 
z"/>
<path fill="#000000" opacity="1.000000" stroke="none" 
	d="
M103.621101,73.047035 
	C112.194923,73.400978 120.252007,72.265549 128.319611,75.780991 
	C137.895645,79.953751 148.270859,93.854019 148.156952,104.541016 
	C148.063400,113.317703 147.205399,121.342789 141.313263,128.416229 
	C137.277405,133.261246 132.674103,136.601654 126.857025,139.247375 
	C117.805656,143.364105 109.189369,142.878006 100.189819,140.002182 
	C90.205971,136.811783 83.381012,130.477020 79.167427,120.793442 
	C76.191307,113.953789 74.851990,107.143143 77.055466,100.042656 
	C80.488487,88.980080 86.077263,79.631981 98.116844,75.927948 
	C99.927643,75.370850 101.497032,74.029076 103.621101,73.047035 
z"/>
<path fill="#000000" opacity="1.000000" stroke="none" 
	d="
M147.016953,66.778610 
	C147.016953,66.778610 147.001785,66.420090 146.996796,65.778763 
	C147.365585,56.769482 147.739349,48.401527 148.113129,40.033573 
	C148.113129,40.033573 148.025345,40.016636 148.291107,39.986252 
	C148.742111,39.645805 148.927368,39.335739 149.112610,39.025669 
	C149.112610,39.025669 149.019379,39.022312 149.296478,38.995529 
	C149.766891,38.656448 149.960190,38.344147 150.153503,38.031845 
	C150.153503,38.031845 150.590088,37.982563 151.219162,37.962677 
	C160.570206,37.907642 169.292191,37.872490 178.014160,37.837334 
	C181.786926,40.316570 183.445602,43.696774 183.061813,48.299500 
	C182.758713,51.934502 182.963562,55.615448 183.008636,59.275181 
	C183.120972,68.395729 181.898514,72.180672 171.453445,72.822723 
	C164.451904,73.253113 157.357254,72.168709 150.127182,71.123108 
	C149.629700,70.256470 149.309311,70.028801 148.988922,69.801132 
	C148.996353,69.491074 148.866852,69.256645 148.324646,68.714615 
	C147.704910,67.813782 147.360931,67.296196 147.016953,66.778610 
z"/>
<path fill="#B0DEEE" opacity="1.000000" stroke="none" 
	d="
M47.081612,177.416855 
	C86.623314,177.076813 126.495575,177.062286 166.367523,176.942780 
	C170.620667,176.930038 174.871948,176.303955 179.554306,175.935272 
	C178.326263,176.633179 176.669785,177.986053 175.009506,177.990753 
	C139.940552,178.089859 104.871140,178.053345 69.801888,178.000961 
	C62.338490,177.989807 54.875347,177.812668 47.081612,177.416855 
z"/>
<path fill="#A6E0F0" opacity="1.000000" stroke="none" 
	d="
M56.423531,121.574554 
	C56.138813,113.208801 56.083176,104.553642 56.114670,95.482468 
	C56.201794,95.066452 56.612404,95.060074 56.808174,95.032181 
	C57.003941,95.004288 56.983284,94.990776 56.983284,94.990776 
	C56.873058,103.755569 56.762833,112.520355 56.423531,121.574554 
z"/>
<path fill="#71CCE6" opacity="1.000000" stroke="none" 
	d="
M177.907623,37.452171 
	C169.292191,37.872490 160.570206,37.907642 151.424622,37.884972 
	C151.827332,37.223560 152.645432,36.109524 153.481232,36.096085 
	C161.062271,35.974155 168.646606,36.024483 176.229187,36.101768 
	C176.756378,36.107143 177.277252,36.730850 177.907623,37.452171 
z"/>
<path fill="#88CFE3" opacity="1.000000" stroke="none" 
	d="
M147.706573,40.103897 
	C147.739349,48.401527 147.365585,56.769482 146.927155,65.613411 
	C147.008347,57.450996 147.154175,48.812611 147.706573,40.103897 
z"/>
<path fill="#B0DEEE" opacity="1.000000" stroke="none" 
	d="
M180.248505,175.969803 
	C180.363846,175.314407 180.818115,174.668732 181.623367,173.968918 
	C181.512039,174.603027 181.049744,175.291275 180.248505,175.969803 
z"/>
<path fill="#A6E0F0" opacity="1.000000" stroke="none" 
	d="
M57.012691,95.013969 
	C57.124466,94.603050 57.227489,94.182442 57.330513,93.761841 
	C57.344795,94.092949 57.359077,94.424065 57.178322,94.872971 
	C56.983284,94.990776 57.003941,95.004288 57.012691,95.013969 
z"/>
<path fill="#88CFE3" opacity="1.000000" stroke="none" 
	d="
M147.008759,67.127548 
	C147.360931,67.296196 147.704910,67.813782 148.120300,68.669548 
	C147.794678,68.497314 147.397629,67.986908 147.008759,67.127548 
z"/>
<path fill="#B0DEEE" opacity="1.000000" stroke="none" 
	d="
M42.131042,174.205811 
	C42.681637,174.123764 43.339684,174.336868 43.946075,174.922577 
	C43.342442,175.030457 42.790466,174.765717 42.131042,174.205811 
z"/>
<path fill="#B0DEEE" opacity="1.000000" stroke="none" 
	d="
M44.093147,176.057098 
	C44.628353,175.939606 45.294971,176.186722 46.156242,176.743805 
	C45.642117,176.843094 44.933334,176.632401 44.093147,176.057098 
z"/>
<path fill="#88CFE3" opacity="1.000000" stroke="none" 
	d="
M149.884186,38.114105 
	C149.960190,38.344147 149.766891,38.656448 149.299423,39.042084 
	C149.221802,38.809071 149.418335,38.502720 149.884186,38.114105 
z"/>
<path fill="#88CFE3" opacity="1.000000" stroke="none" 
	d="
M149.051117,70.064072 
	C149.309311,70.028801 149.629700,70.256470 149.902191,70.784164 
	C149.607315,70.831795 149.360321,70.579399 149.051117,70.064072 
z"/>
<path fill="#88CFE3" opacity="1.000000" stroke="none" 
	d="
M148.852188,39.113583 
	C148.927368,39.335739 148.742111,39.645805 148.287094,40.030769 
	C148.208801,39.804279 148.400284,39.502888 148.852188,39.113583 
z"/>
<path fill="#000000" opacity="1.000000" stroke="none" 
	d="
M476.554993,137.786987 
	C475.127533,136.172897 472.914429,134.171234 473.189270,132.606552 
	C475.009613,122.242165 478.535583,112.495461 485.906586,104.607735 
	C491.251923,98.887726 497.940460,98.219139 505.022797,100.189896 
	C505.756195,100.393959 506.603821,103.254608 506.116425,104.262856 
	C503.630035,109.406311 501.423615,114.941742 497.794464,119.214958 
	C492.583191,125.351234 486.262665,130.553619 480.321747,136.053238 
	C479.453888,136.856674 478.066925,137.099365 476.554993,137.786987 
z"/>
<path fill="#000000" opacity="1.000000" stroke="none" 
	d="
M498.593933,126.429840 
	C498.885162,125.890129 499.324738,125.575211 499.764313,125.260284 
	C499.723846,125.799957 499.683411,126.339630 499.362579,126.975922 
	C498.968903,126.933250 498.855621,126.793945 498.593933,126.429840 
z"/>
<path fill="#000000" opacity="1.000000" stroke="none" 
	d="
M383.284851,133.272003 
	C380.212524,139.834885 375.819519,144.314560 369.102264,146.488861 
	C364.738770,147.901291 360.979370,146.718811 357.790405,144.069077 
	C356.587952,143.069962 355.694641,140.346497 356.164337,138.896088 
	C360.996887,123.972542 369.171387,111.533936 383.588409,104.142128 
	C388.528076,101.609489 391.880157,103.398903 390.787354,108.745071 
	C389.105530,116.973076 386.019897,124.914131 383.284851,133.272003 
z"/>
<path fill="#000000" opacity="1.000000" stroke="none" 
	d="
M598.284912,107.215363 
	C602.486145,100.467163 615.878052,96.586411 621.750977,100.336594 
	C622.335571,100.709862 622.888184,102.159904 622.621277,102.690216 
	C615.642944,116.553513 607.643677,129.624939 593.279541,137.158569 
	C589.432312,139.176392 587.667603,138.007706 588.072693,133.589783 
	C588.950806,124.012398 592.023682,115.160347 598.284912,107.215363 
z"/>
<path fill="#000000" opacity="1.000000" stroke="none" 
	d="
M615.569702,124.449295 
	C615.743042,123.560478 616.075806,122.888496 616.895020,121.234337 
	C616.796265,123.144547 616.753174,123.978691 616.396240,124.942612 
	C615.964661,124.936981 615.846924,124.801559 615.569702,124.449295 
z"/>
<path fill="#000000" opacity="1.000000" stroke="none" 
	d="
M445.739136,107.756454 
	C440.749786,110.683769 436.064331,113.408279 431.281616,115.949814 
	C430.124146,116.564896 428.645630,116.575798 426.742462,116.988678 
	C429.551544,109.826981 431.638000,102.736458 439.320892,100.099434 
	C441.316437,99.414497 444.400726,99.753418 446.113892,100.911095 
	C448.523376,102.539352 447.625214,105.287880 445.739136,107.756454 
z"/>
</svg>